<svg width="24" height="24" viewBox="0 0 24 24" fill="none" xmlns="http://www.w3.org/2000/svg">
<path d="M19.7502 10C19.7502 9.8011 19.6711 9.61033 19.5305 9.46968C19.3898 9.32903 19.1991 9.25001 19.0002 9.25001C18.8012 9.25001 18.6105 9.32903 18.4698 9.46968C18.3292 9.61033 18.2502 9.8011 18.2502 10H19.7502ZM5.75015 10C5.75015 9.8011 5.67114 9.61033 5.53048 9.46968C5.38983 9.32903 5.19907 9.25001 5.00015 9.25001C4.80124 9.25001 4.61048 9.32903 4.46982 9.46968C4.32917 9.61033 4.25015 9.8011 4.25015 10H5.75015ZM20.4702 12.53C20.5388 12.6037 20.6216 12.6628 20.7136 12.7038C20.8056 12.7448 20.9049 12.7668 21.0056 12.7686C21.1063 12.7704 21.2064 12.7519 21.2998 12.7141C21.3931 12.6764 21.478 12.6203 21.5492 12.549C21.6204 12.4778 21.6766 12.393 21.7143 12.2996C21.752 12.2062 21.7705 12.1062 21.7687 12.0055C21.767 11.9048 21.7449 11.8055 21.7039 11.7135C21.6629 11.6215 21.6038 11.5387 21.5302 11.47L20.4702 12.53ZM12.0002 3.00001L12.5302 2.47001C12.3895 2.32956 12.1989 2.25067 12.0002 2.25067C11.8014 2.25067 11.6108 2.32956 11.4702 2.47001L12.0002 3.00001ZM2.47015 11.47C2.39647 11.5387 2.33736 11.6215 2.29637 11.7135C2.25538 11.8055 2.23334 11.9048 2.23156 12.0055C2.22979 12.1062 2.24831 12.2062 2.28603 12.2996C2.32375 12.393 2.3799 12.4778 2.45112 12.549C2.52233 12.6203 2.60717 12.6764 2.70056 12.7141C2.79394 12.7519 2.89397 12.7704 2.99468 12.7686C3.09538 12.7668 3.19469 12.7448 3.28669 12.7038C3.37869 12.6628 3.46149 12.6037 3.53015 12.53L2.47015 11.47ZM7.00015 21.75H17.0002V20.25H7.00015V21.75ZM19.7502 19V10H18.2502V19H19.7502ZM5.75015 19V10H4.25015V19H5.75015ZM21.5302 11.47L12.5302 2.47001L11.4702 3.53001L20.4702 12.53L21.5302 11.47ZM11.4702 2.47001L2.47015 11.47L3.53015 12.53L12.5302 3.53001L11.4702 2.47001ZM17.0002 21.75C17.7295 21.75 18.429 21.4603 18.9447 20.9446C19.4604 20.4288 19.7502 19.7294 19.7502 19H18.2502C18.2502 19.69 17.6902 20.25 17.0002 20.25V21.75ZM7.00015 20.25C6.31015 20.25 5.75015 19.69 5.75015 19H4.25015C4.25015 19.7294 4.53989 20.4288 5.05561 20.9446C5.57133 21.4603 6.27081 21.75 7.00015 21.75V20.25Z" fill="#F4F4F4"/>
</svg>
