<svg width="24" height="24" viewBox="0 0 24 24" fill="none" xmlns="http://www.w3.org/2000/svg">
<path d="M12 3.25C12.1989 3.25 12.3897 3.32902 12.5303 3.46967C12.671 3.61032 12.75 3.80109 12.75 4C12.75 4.19891 12.671 4.38968 12.5303 4.53033C12.3897 4.67098 12.1989 4.75 12 4.75C10.0772 4.75 8.23311 5.51384 6.87348 6.87348C5.51384 8.23311 4.75 10.0772 4.75 12C4.75 13.9228 5.51384 15.7669 6.87348 17.1265C8.23311 18.4862 10.0772 19.25 12 19.25C12.1989 19.25 12.3897 19.329 12.5303 19.4697C12.671 19.6103 12.75 19.8011 12.75 20C12.75 20.1989 12.671 20.3897 12.5303 20.5303C12.3897 20.671 12.1989 20.75 12 20.75C9.67936 20.75 7.45376 19.8281 5.81282 18.1872C4.17187 16.5462 3.25 14.3206 3.25 12C3.25 9.67936 4.17187 7.45376 5.81282 5.81282C7.45376 4.17187 9.67936 3.25 12 3.25Z" fill="#F4F4F4"/>
<path d="M16.47 9.53C16.3375 9.38782 16.2654 9.19978 16.2688 9.00548C16.2723 8.81118 16.351 8.62579 16.4884 8.48838C16.6258 8.35097 16.8112 8.27225 17.0055 8.26882C17.1998 8.2654 17.3878 8.33752 17.53 8.47L20.53 11.47C20.6705 11.6106 20.7493 11.8012 20.7493 12C20.7493 12.1988 20.6705 12.3894 20.53 12.53L17.53 15.53C17.4613 15.6037 17.3785 15.6628 17.2865 15.7038C17.1945 15.7448 17.0952 15.7668 16.9945 15.7686C16.8938 15.7704 16.7938 15.7518 16.7004 15.7141C16.607 15.6764 16.5222 15.6203 16.451 15.549C16.3797 15.4778 16.3236 15.393 16.2859 15.2996C16.2482 15.2062 16.2296 15.1062 16.2314 15.0055C16.2332 14.9048 16.2552 14.8055 16.2962 14.7135C16.3372 14.6215 16.3963 14.5387 16.47 14.47L18.19 12.75H10C9.80109 12.75 9.61032 12.671 9.46967 12.5303C9.32902 12.3897 9.25 12.1989 9.25 12C9.25 11.8011 9.32902 11.6103 9.46967 11.4697C9.61032 11.329 9.80109 11.25 10 11.25H18.19L16.47 9.53Z" fill="#F4F4F4"/>
</svg>
