<svg width="24" height="24" viewBox="0 0 24 24" fill="none" xmlns="http://www.w3.org/2000/svg">
<path d="M11.9998 3C10.2096 3 8.49269 3.71116 7.22682 4.97703C5.96095 6.2429 5.24979 7.95979 5.24979 9.75V13.3522L3.80304 16.9718C3.75757 17.0856 3.74068 17.2088 3.75386 17.3306C3.76704 17.4525 3.80988 17.5693 3.87863 17.6707C3.94738 17.7722 4.03995 17.8552 4.14823 17.9126C4.25652 17.9701 4.37723 18 4.49979 18H8.99979C8.99979 19.6628 10.337 21 11.9998 21C13.6625 21 14.9998 19.6628 14.9998 18H19.4998C19.6223 18 19.7431 17.9701 19.8513 17.9126C19.9596 17.8552 20.0522 17.7722 20.1209 17.6707C20.1897 17.5693 20.2325 17.4525 20.2457 17.3306C20.2589 17.2088 20.242 17.0856 20.1965 16.9718L18.7498 13.3522V9.75C18.7498 7.95979 18.0386 6.2429 16.7728 4.97703C15.5069 3.71116 13.79 3 11.9998 3ZM13.4998 18C13.4998 18.834 12.8338 19.5 11.9998 19.5C11.1658 19.5 10.4998 18.834 10.4998 18H13.4998ZM6.74979 9.75C6.74979 8.35761 7.30291 7.02226 8.28748 6.03769C9.27204 5.05312 10.6074 4.5 11.9998 4.5C13.3922 4.5 14.7275 5.05312 15.7121 6.03769C16.6967 7.02226 17.2498 8.35761 17.2498 9.75V13.4963C17.2497 13.5915 17.2678 13.686 17.303 13.7745L18.392 16.5H5.60754L6.69654 13.7745C6.73171 13.6862 6.74978 13.592 6.74979 13.497V9.75Z" fill="#F4F4F4"/>
</svg>
