<svg width="24" height="24" viewBox="0 0 24 24" fill="none" xmlns="http://www.w3.org/2000/svg">
<path d="M5.25 4.125C4.95163 4.125 4.66548 4.24353 4.4545 4.4545C4.24353 4.66548 4.125 4.95163 4.125 5.25V18.75C4.125 19.0484 4.24353 19.3345 4.4545 19.5455C4.66548 19.7565 4.95163 19.875 5.25 19.875H18.75C19.0484 19.875 19.3345 19.7565 19.5455 19.5455C19.7565 19.3345 19.875 19.0484 19.875 18.75V5.25C19.875 4.95163 19.7565 4.66548 19.5455 4.4545C19.3345 4.24353 19.0484 4.125 18.75 4.125H13.6875C13.3891 4.125 13.103 4.24353 12.892 4.4545C12.681 4.66548 12.5625 4.95163 12.5625 5.25V13.4546L15.5392 10.4767C15.6449 10.3711 15.7881 10.3118 15.9375 10.3118C16.0869 10.3118 16.2301 10.3711 16.3358 10.4767C16.4414 10.5824 16.5007 10.7256 16.5007 10.875C16.5007 11.0244 16.4414 11.1676 16.3358 11.2733L12.3983 15.2108C12.346 15.2631 12.2839 15.3047 12.2156 15.3331C12.1472 15.3614 12.074 15.376 12 15.376C11.926 15.376 11.8528 15.3614 11.7844 15.3331C11.7161 15.3047 11.654 15.2631 11.6017 15.2108L7.66425 11.2733C7.61195 11.221 7.57047 11.1589 7.54216 11.0905C7.51386 11.0222 7.49929 10.949 7.49929 10.875C7.49929 10.801 7.51386 10.7278 7.54216 10.6595C7.57047 10.5911 7.61195 10.529 7.66425 10.4767C7.71655 10.4245 7.77864 10.383 7.84697 10.3547C7.9153 10.3264 7.98854 10.3118 8.0625 10.3118C8.13646 10.3118 8.2097 10.3264 8.27803 10.3547C8.34636 10.383 8.40845 10.4245 8.46075 10.4767L11.4375 13.4546V5.25C11.4375 4.65326 11.6746 4.08097 12.0965 3.65901C12.5185 3.23705 13.0908 3 13.6875 3H18.75C19.3467 3 19.919 3.23705 20.341 3.65901C20.7629 4.08097 21 4.65326 21 5.25V18.75C21 19.3467 20.7629 19.919 20.341 20.341C19.919 20.7629 19.3467 21 18.75 21H5.25C4.65326 21 4.08097 20.7629 3.65901 20.341C3.23705 19.919 3 19.3467 3 18.75V5.25C3 4.65326 3.23705 4.08097 3.65901 3.65901C4.08097 3.23705 4.65326 3 5.25 3H8.0625C8.21168 3 8.35476 3.05926 8.46025 3.16475C8.56574 3.27024 8.625 3.41332 8.625 3.5625C8.625 3.71168 8.56574 3.85476 8.46025 3.96025C8.35476 4.06574 8.21168 4.125 8.0625 4.125H5.25Z" fill="#FEFEFE"/>
</svg>
